<svg width="50" height="50" viewBox="0 0 50 50" fill="none" xmlns="http://www.w3.org/2000/svg">
<path d="M15.5833 48.9583H3.08333C2.5308 48.9583 2.00089 48.7388 1.61019 48.3481C1.21949 47.9574 1 47.4275 1 46.875V34.375" stroke="#237AD9" stroke-width="2" stroke-linecap="round" stroke-linejoin="round"/>
<path d="M15.5833 1.04163H3.08333C2.5308 1.04163 2.00089 1.26112 1.61019 1.65182C1.21949 2.04252 1 2.57242 1 3.12496V15.625" stroke="#237AD9" stroke-width="2" stroke-linecap="round" stroke-linejoin="round"/>
<path d="M34.3333 48.9583H46.8333C47.3858 48.9583 47.9158 48.7388 48.3065 48.3481C48.6972 47.9574 48.9166 47.4275 48.9166 46.875V34.375" stroke="#237AD9" stroke-width="2" stroke-linecap="round" stroke-linejoin="round"/>
<path d="M34.3333 1.04163H46.8333C47.3858 1.04163 47.9158 1.26112 48.3065 1.65182C48.6972 2.04252 48.9166 2.57242 48.9166 3.12496V15.625" stroke="#237AD9" stroke-width="2" stroke-linecap="round" stroke-linejoin="round"/>
<path d="M36.4167 38.5416C36.4167 35.5026 35.2095 32.5882 33.0606 30.4393C30.9117 28.2905 27.9973 27.0833 24.9583 27.0833C21.9194 27.0833 19.0049 28.2905 16.8561 30.4393C14.7072 32.5882 13.5 35.5026 13.5 38.5416H36.4167Z" stroke="#237AD9" stroke-width="2" stroke-linecap="round" stroke-linejoin="round"/>
<path d="M19.0083 13.75C20.5955 15.3947 22.6461 16.5169 24.8869 16.9672C27.1278 17.4176 29.4527 17.1747 31.5521 16.2708" stroke="#237AD9" stroke-width="2" stroke-linecap="round" stroke-linejoin="round"/>
<path d="M18.0708 17.1875C18.0708 18.9832 18.7842 20.7054 20.0539 21.9752C21.3237 23.2449 23.0459 23.9583 24.8416 23.9583C26.6374 23.9583 28.3596 23.2449 29.6293 21.9752C30.8991 20.7054 31.6125 18.9832 31.6125 17.1875C31.6125 15.3917 30.8991 13.6695 29.6293 12.3998C28.3596 11.13 26.6374 10.4166 24.8416 10.4166C23.0459 10.4166 21.3237 11.13 20.0539 12.3998C18.7842 13.6695 18.0708 15.3917 18.0708 17.1875V17.1875Z" stroke="#237AD9" stroke-width="2" stroke-linecap="round" stroke-linejoin="round"/>
</svg>
