<svg width="54" height="53" viewBox="0 0 54 53" fill="none" xmlns="http://www.w3.org/2000/svg">
<path d="M52.0889 52C52.0889 49.0544 50.9188 46.2295 48.8359 44.1466C46.7531 42.0638 43.9282 40.8937 40.9826 40.8937C38.037 40.8937 35.2121 42.0638 33.1293 44.1466C31.0465 46.2295 29.8763 49.0544 29.8763 52H52.0889Z" stroke="#237AD9" stroke-width="2" stroke-linecap="round" stroke-linejoin="round"/>
<path d="M40.9826 37.5708C44.6629 37.5708 47.6464 34.5873 47.6464 30.9071C47.6464 27.2268 44.6629 24.2433 40.9826 24.2433C37.3023 24.2433 34.3188 27.2268 34.3188 30.9071C34.3188 34.5873 37.3023 37.5708 40.9826 37.5708Z" stroke="#237AD9" stroke-width="2" stroke-linecap="round" stroke-linejoin="round"/>
<path d="M25.9891 45.4252H3.22125C2.63214 45.4252 2.06716 45.1912 1.65059 44.7746C1.23402 44.3581 1 43.7931 1 43.204V7.66388C1 7.07477 1.23402 6.50978 1.65059 6.09322C2.06716 5.67665 2.63214 5.44263 3.22125 5.44263H34.3188C34.9079 5.44263 35.4729 5.67665 35.8895 6.09322C36.3061 6.50978 36.5401 7.07477 36.5401 7.66388V18.7702" stroke="#237AD9" stroke-width="2" stroke-linecap="round" stroke-linejoin="round"/>
<path d="M9.88501 9.88502V1" stroke="#237AD9" stroke-width="2" stroke-linecap="round" stroke-linejoin="round"/>
<path d="M18.77 9.88502V1" stroke="#237AD9" stroke-width="2" stroke-linecap="round" stroke-linejoin="round"/>
<path d="M27.655 9.88502V1" stroke="#237AD9" stroke-width="2" stroke-linecap="round" stroke-linejoin="round"/>
<path d="M18.77 36.5402C24.9039 36.5402 29.8763 31.5677 29.8763 25.4339C29.8763 19.3001 24.9039 14.3276 18.77 14.3276C12.6362 14.3276 7.66376 19.3001 7.66376 25.4339C7.66376 31.5677 12.6362 36.5402 18.77 36.5402Z" stroke="#237AD9" stroke-width="2" stroke-linecap="round" stroke-linejoin="round"/>
<path d="M25.0495 16.2734L18.77 25.4339L25.8891 33.9546" stroke="#237AD9" stroke-width="2" stroke-linecap="round" stroke-linejoin="round"/>
<path d="M18.77 25.4338H7.66376" stroke="#237AD9" stroke-width="2" stroke-linecap="round" stroke-linejoin="round"/>
</svg>
