<svg width="67" height="49" viewBox="0 0 67 49" fill="none" xmlns="http://www.w3.org/2000/svg">
<path d="M65.0035 35C65.0035 36.9778 64.4169 38.9112 63.3179 40.5557C62.2189 42.2002 60.6568 43.4819 58.8292 44.2388C57.0017 44.9957 54.9906 45.1937 53.0505 44.8079C51.1104 44.422 49.3282 43.4696 47.9294 42.0711C46.5307 40.6725 45.5781 38.8907 45.1922 36.9509C44.8063 35.0111 45.0043 33.0004 45.7613 31.1732C46.5183 29.3459 47.8003 27.7841 49.4451 26.6853C51.0899 25.5865 53.0236 25 55.0017 25" stroke="#237AD9" stroke-width="2" stroke-linecap="round" stroke-linejoin="round"/>
<path d="M51.001 35L54.2416 37.43C54.4467 37.5837 54.703 37.6528 54.9577 37.6231C55.2123 37.5933 55.4457 37.4669 55.6098 37.27L65.0035 26" stroke="#237AD9" stroke-width="2" stroke-linecap="round" stroke-linejoin="round"/>
<path d="M11.5 47.6667H44.1667" stroke="#237AD9" stroke-width="2" stroke-linecap="round" stroke-linejoin="round"/>
<path d="M26.6667 43V47.6667" stroke="#237AD9" stroke-width="2" stroke-linecap="round" stroke-linejoin="round"/>
<path d="M1 33.6667H38.5" stroke="#237AD9" stroke-width="2" stroke-linecap="round" stroke-linejoin="round"/>
<path d="M19.6667 29.0001C26.11 29.0001 31.3333 23.7767 31.3333 17.3334C31.3333 10.8901 26.11 5.66675 19.6667 5.66675C13.2233 5.66675 8 10.8901 8 17.3334C8 23.7767 13.2233 29.0001 19.6667 29.0001Z" stroke="#237AD9" stroke-width="2" stroke-linecap="round" stroke-linejoin="round"/>
<path d="M26.263 7.71069L19.6667 17.3334L27.145 26.284" stroke="#237AD9" stroke-width="2" stroke-linecap="round" stroke-linejoin="round"/>
<path d="M19.6667 17.3333H8" stroke="#237AD9" stroke-width="2" stroke-linecap="round" stroke-linejoin="round"/>
<path d="M38.3333 8H47.6667" stroke="#237AD9" stroke-width="2" stroke-linecap="round" stroke-linejoin="round"/>
<path d="M38.3333 15H47.6667" stroke="#237AD9" stroke-width="2" stroke-linecap="round" stroke-linejoin="round"/>
<path d="M38.3333 22H47.6667" stroke="#237AD9" stroke-width="2" stroke-linecap="round" stroke-linejoin="round"/>
<path d="M43 43H4.5C2.567 43 1 41.433 1 39.5V4.5C1 2.567 2.567 1 4.5 1H51.1667C53.0997 1 54.6667 2.567 54.6667 4.5V20" stroke="#237AD9" stroke-width="2" stroke-linecap="round" stroke-linejoin="round"/>
</svg>
